<?xml version="1.0" standalone="no"?><!DOCTYPE svg PUBLIC "-//W3C//DTD SVG 1.1//EN" "http://www.w3.org/Graphics/SVG/1.1/DTD/svg11.dtd"><svg class="icon" width="200px" height="200.00px" viewBox="0 0 1024 1024" version="1.1" xmlns="http://www.w3.org/2000/svg"><path fill="#333333" d="M790.15 565.83L492.24 140.37c-7.92-11.31-5.17-26.9 6.14-34.82 11.31-7.92 26.9-5.17 34.82 6.14l297.9 425.46c7.92 11.31 5.17 26.9-6.14 34.82-11.3 7.92-26.89 5.17-34.81-6.14z"  /><path fill="#333333" d="M198.61 568.89c-11.31-7.92-14.06-23.51-6.14-34.82l297.91-425.46c7.92-11.31 23.51-14.06 34.82-6.14 11.31 7.92 14.06 23.51 6.14 34.82L233.43 562.75c-7.92 11.31-23.51 14.06-34.82 6.14zM790.57 922.89L492.66 497.44c-7.92-11.31-5.17-26.9 6.14-34.82 11.31-7.92 26.9-5.17 34.82 6.14l297.91 425.46c7.92 11.31 5.17 26.9-6.14 34.82-11.31 7.91-26.9 5.16-34.82-6.15z"  /><path fill="#333333" d="M199.03 925.96c-11.31-7.92-14.06-23.51-6.14-34.82L490.8 465.69c7.92-11.31 23.51-14.06 34.82-6.14 11.31 7.92 14.06 23.51 6.14 34.82L233.85 919.82c-7.92 11.31-23.51 14.06-34.82 6.14z"  /></svg>